<svg width="30" height="30" viewBox="0 0 30 30" fill="none" xmlns="http://www.w3.org/2000/svg">
<path d="M18.9046 5.66194C20.3412 4.22529 22.6705 4.22529 24.1071 5.66194C25.5438 7.09859 25.5438 9.42786 24.1071 10.8645L15.5027 19.4689C14.8832 20.0884 14.0874 20.5013 13.2242 20.6511L11.6857 20.9181C10.4704 21.129 9.34993 21.7104 8.47773 22.5826L6.01442 25.0459C5.6239 25.4364 4.99073 25.4364 4.60021 25.0459C4.20968 24.6554 4.20968 24.0222 4.60021 23.6317L7.11063 21.1212C7.94846 20.2834 8.52184 19.218 8.75963 18.0573L9.08332 16.4771C9.25035 15.6618 9.65312 14.9134 10.2417 14.3249L18.9046 5.66194Z" stroke="#0A5EC4" strokeWidth="1.5"/>
<path d="M8.41218 22.6478L6.01397 25.046C5.62344 25.4365 4.99028 25.4365 4.59976 25.046C4.20923 24.6555 4.20923 24.0223 4.59976 23.6318L6.99797 21.2336C7.3885 20.8431 8.02166 20.8431 8.41218 21.2336C8.80271 21.6241 8.80271 22.2573 8.41218 22.6478Z" fill="#0A5EC4" stroke="#0A5EC4" strokeWidth="1.5"/>
<circle cx="21.75" cy="7.75" r="0.75" fill="#0A5EC4"/>
<path d="M17.5 12.5L14.5 15.5" stroke="#0A5EC4" strokeWidth="1.5" stroke-linecap="square"/>
</svg>
