<svg width="30" height="30" viewBox="0 0 30 30" fill="none" xmlns="http://www.w3.org/2000/svg">
<path d="M1.25 22.5C1.25 23.1904 1.80964 23.75 2.5 23.75L7.5 23.75C8.19036 23.75 8.75 23.1904 8.75 22.5L8.75 20.5C8.75 19.8096 8.19036 19.25 7.5 19.25L2.5 19.25C1.80964 19.25 1.25 19.8096 1.25 20.5L1.25 22.5Z" stroke="#0A5EC4" strokeWidth="1.5"/>
<path d="M6.25 15.5C6.25 16.1904 6.80964 16.75 7.5 16.75L12.5 16.75C13.1904 16.75 13.75 16.1904 13.75 15.5L13.75 13.5C13.75 12.8096 13.1904 12.25 12.5 12.25L7.5 12.25C6.80964 12.25 6.25 12.8096 6.25 13.5L6.25 15.5Z" stroke="#0A5EC4" strokeWidth="1.5"/>
<path d="M11.25 22.5C11.25 23.1904 11.8096 23.75 12.5 23.75L17.5 23.75C18.1904 23.75 18.75 23.1904 18.75 22.5L18.75 20.5C18.75 19.8096 18.1904 19.25 17.5 19.25L12.5 19.25C11.8096 19.25 11.25 19.8096 11.25 20.5L11.25 22.5Z" stroke="#0A5EC4" strokeWidth="1.5"/>
<path d="M16.25 15.5C16.25 16.1904 16.8096 16.75 17.5 16.75L22.5 16.75C23.1904 16.75 23.75 16.1904 23.75 15.5L23.75 13.5C23.75 12.8096 23.1904 12.25 22.5 12.25L17.5 12.25C16.8096 12.25 16.25 12.8096 16.25 13.5L16.25 15.5Z" stroke="#0A5EC4" strokeWidth="1.5"/>
<path d="M21.25 22.5C21.25 23.1904 21.8096 23.75 22.5 23.75L27.5 23.75C28.1904 23.75 28.75 23.1904 28.75 22.5L28.75 20.5C28.75 19.8096 28.1904 19.25 27.5 19.25L22.5 19.25C21.8096 19.25 21.25 19.8096 21.25 20.5L21.25 22.5Z" stroke="#0A5EC4" strokeWidth="1.5"/>
<path d="M11.25 8.5C11.25 9.19036 11.8096 9.75 12.5 9.75L17.5 9.75C18.1904 9.75 18.75 9.19036 18.75 8.5L18.75 6.5C18.75 5.80964 18.1904 5.25 17.5 5.25L12.5 5.25C11.8096 5.25 11.25 5.80964 11.25 6.5L11.25 8.5Z" stroke="#0A5EC4" strokeWidth="1.5"/>
</svg>
