<svg width="30" height="30" viewBox="0 0 30 30" fill="none" xmlns="http://www.w3.org/2000/svg">
<path d="M15 22C15 20.8954 15.8954 20 17 20V20C18.1046 20 19 20.8954 19 22V26C19 27.1046 18.1046 28 17 28V28C15.8954 28 15 27.1046 15 26V22Z" stroke="#0A5EC4" strokeWidth="1.5"/>
<path d="M12 11C10.8954 11 10 10.1046 10 9L10 5C10 3.89543 10.8954 3 12 3L23 3C24.1046 3 25 3.89543 25 5L25 9C25 10.1046 24.1046 11 23 11L12 11Z" stroke="#0A5EC4" strokeWidth="1.5"/>
<path d="M17 20V17.3571C17 16.2526 16.1046 15.3571 15 15.3571H8C6.89543 15.3571 6 14.4617 6 13.3571V9C6 7.89543 6.89543 7 8 7H10.5833" stroke="#0A5EC4" strokeWidth="1.5"/>
</svg>
