<svg width="30" height="30" viewBox="0 0 30 30" fill="none" xmlns="http://www.w3.org/2000/svg">
<path d="M3.36995 14.5299C2.89612 13.4243 3.44155 12.1469 4.56783 11.7246V11.7246C5.64166 11.3219 6.84046 11.8511 7.26639 12.916L8.74567 16.6142C9.20126 17.7531 10.3044 18.5 11.5311 18.5H18.4689C19.6956 18.5 20.7987 17.7531 21.2543 16.6142L22.7336 12.916C23.1595 11.8512 24.3583 11.3219 25.4321 11.7246V11.7246C26.5584 12.1469 27.1039 13.4243 26.63 14.5299L23.7792 21.1818C23.3065 22.2848 22.2219 23 21.0218 23H8.97819C7.7781 23 6.69349 22.2848 6.22075 21.1818L3.36995 14.5299Z" stroke="#0A5EC4" strokeWidth="1.5"/>
<path d="M8 15V9C8 7.34315 9.34315 6 11 6H19C20.6569 6 22 7.34315 22 9V15" stroke="#0A5EC4" strokeWidth="1.5"/>
<path d="M9.5 23V25" stroke="#0A5EC4" strokeWidth="1.5" stroke-linecap="square"/>
<path d="M20 23V25" stroke="#0A5EC4" strokeWidth="1.5" stroke-linecap="square"/>
</svg>
