<svg width="30" height="30" viewBox="0 0 30 30" fill="none" xmlns="http://www.w3.org/2000/svg">
<path d="M14.206 6.03691L5.27713 17.6978C5.18135 17.8229 5.11648 17.9689 5.08781 18.1238L4.21882 22.818C4.10501 23.4327 4.57691 24 5.20211 24H24.7979C25.4231 24 25.895 23.4327 25.7812 22.818L24.9122 18.1238C24.8835 17.9689 24.8186 17.8229 24.7229 17.6978L15.794 6.03691C15.3937 5.51418 14.6063 5.51418 14.206 6.03691Z" stroke="#0A5EC4" strokeWidth="1.5" stroke-linecap="square"/>
<path d="M14.7059 15L15.3523 14.6197C15.2142 14.3849 14.9595 14.2434 14.6872 14.2502C14.4148 14.257 14.1675 14.411 14.0413 14.6525L14.7059 15ZM10.6646 24.3475L15.3705 15.3475L14.0413 14.6525L9.33537 23.6525L10.6646 24.3475ZM14.0594 15.3803L19.3535 24.3803L20.6465 23.6197L15.3523 14.6197L14.0594 15.3803Z" fill="#0A5EC4"/>
<path d="M25 20L29 23" stroke="#0A5EC4" strokeWidth="1.5"/>
<path d="M29 21V24.5" stroke="#0A5EC4" strokeWidth="1.5"/>
<path d="M5 20L1 23" stroke="#0A5EC4" strokeWidth="1.5"/>
<path d="M1 21V24.5" stroke="#0A5EC4" strokeWidth="1.5"/>
</svg>
