<svg width="30" height="30" viewBox="0 0 30 30" fill="none" xmlns="http://www.w3.org/2000/svg">
<path d="M3 7C3 5.89543 3.89543 5 5 5H17.5C18.6046 5 19.5 5.89543 19.5 7V11.5C19.5 12.6046 18.6046 13.5 17.5 13.5H14.5H12.878C12.3757 13.5 11.9514 13.8726 11.8864 14.3707L10.7271 23.2587C10.5972 24.2548 9.7485 25 8.74393 25H6.77781C5.57052 25 4.63846 23.9385 4.79461 22.7413L5.85921 14.5794C5.93383 14.0073 5.48843 13.5 4.91149 13.5V13.5C3.85581 13.5 3 12.6442 3 11.5885V7Z" stroke="#0A5EC4" strokeWidth="1.5"/>
<path d="M19.5 6.5H22.25C23.7688 6.5 25 7.73122 25 9.25C25 10.7688 23.7688 12 22.25 12H19.5V6.5Z" stroke="#0A5EC4" strokeWidth="1.5"/>
<path d="M14.5 13.5V17C14.5 17.5523 14.0523 18 13.5 18H12" stroke="#0A5EC4" strokeWidth="1.5" stroke-linecap="round"/>
<line x1="25.75" y1="9.25" x2="28.25" y2="9.25" stroke="#0A5EC4" strokeWidth="1.5" stroke-linecap="round"/>
</svg>
