<svg width="24" height="24" viewBox="0 0 24 24" fill="none" xmlns="http://www.w3.org/2000/svg">
<path fill-rule="evenodd" clip-rule="evenodd" d="M18.7365 16.7956H5.26351C4.92512 16.7956 4.69753 16.6315 4.58431 16.4454C4.47561 16.2666 4.46731 16.0738 4.5873 15.8807L5.28336 14.7603C5.73278 14.0369 5.97388 13.2061 5.97388 12.3542V9.09337C5.97388 6.08669 8.58694 3.5 12 3.5C15.4131 3.5 18.0261 6.08669 18.0261 9.09338V12.3542C18.0261 13.2061 18.2672 14.0369 18.7167 14.7603L19.4127 15.8807C19.5327 16.0738 19.5244 16.2666 19.4157 16.4454C19.3025 16.6315 19.0749 16.7956 18.7365 16.7956ZM4.47388 9.09337C4.47388 5.17581 7.84344 2 12 2C16.1566 2 19.5261 5.17581 19.5261 9.09338V12.3542C19.5261 12.9217 19.6865 13.479 19.9908 13.9687L20.6868 15.0891C21.5691 16.5091 20.4825 18.2956 18.7365 18.2956H15.7385C15.5878 20.2285 13.9716 21.75 12 21.75C10.0284 21.75 8.4122 20.2285 8.26148 18.2956H5.26351C3.51752 18.2956 2.43093 16.5091 3.31318 15.0891L4.00924 13.9687C4.3135 13.479 4.47388 12.9217 4.47388 12.3542V9.09337ZM9.76924 18.2956C9.91398 19.3985 10.8576 20.25 12 20.25C13.1424 20.25 14.086 19.3985 14.2308 18.2956H9.76924Z" fill="#1A1A1A"/>
</svg>
