<svg width="24" height="24" viewBox="0 0 24 24" fill="none" xmlns="http://www.w3.org/2000/svg">
<path fill-rule="evenodd" clip-rule="evenodd" d="M8.75 7C8.75 5.20507 10.2051 3.75 12 3.75C13.7949 3.75 15.25 5.20507 15.25 7C15.25 8.79493 13.7949 10.25 12 10.25C10.2051 10.25 8.75 8.79493 8.75 7ZM12 2.25C9.37665 2.25 7.25 4.37665 7.25 7C7.25 9.62335 9.37665 11.75 12 11.75C14.6234 11.75 16.75 9.62335 16.75 7C16.75 4.37665 14.6234 2.25 12 2.25ZM4.09785 18.0197C5.74887 16.0824 8.64445 14.75 12 14.75C15.3555 14.75 18.2511 16.0824 19.9021 18.0197C20.1279 18.2846 20.25 18.6616 20.25 19.0977C20.25 19.7341 19.7341 20.25 19.0977 20.25H4.9023C4.2659 20.25 3.75 19.7341 3.75 19.0977C3.75 18.6616 3.87208 18.2846 4.09785 18.0197ZM12 13.25C8.27275 13.25 4.93338 14.7268 2.95621 17.0467C2.44524 17.6462 2.25 18.398 2.25 19.0977C2.25 20.5625 3.43747 21.75 4.9023 21.75H19.0977C20.5625 21.75 21.75 20.5625 21.75 19.0977C21.75 18.398 21.5548 17.6462 21.0438 17.0467C19.0666 14.7268 15.7272 13.25 12 13.25Z" fill="#808080"/>
</svg>
