<svg width="24" height="24" viewBox="0 0 24 24" fill="none" xmlns="http://www.w3.org/2000/svg">
<path fill-rule="evenodd" clip-rule="evenodd" d="M5 3.5H7.88889C8.71732 3.5 9.38889 4.17157 9.38889 5V7.88889C9.38889 8.71732 8.71732 9.38889 7.88889 9.38889H5C4.17157 9.38889 3.5 8.71732 3.5 7.88889V5C3.5 4.17157 4.17157 3.5 5 3.5ZM2 5C2 3.34315 3.34315 2 5 2H7.88889C9.54574 2 10.8889 3.34315 10.8889 5V7.88889C10.8889 9.54574 9.54574 10.8889 7.88889 10.8889H5C3.34315 10.8889 2 9.54574 2 7.88889V5ZM16.1111 3.5H19C19.8284 3.5 20.5 4.17157 20.5 5V7.88889C20.5 8.71732 19.8284 9.38889 19 9.38889H16.1111C15.2827 9.38889 14.6111 8.71732 14.6111 7.88889V5C14.6111 4.17157 15.2827 3.5 16.1111 3.5ZM13.1111 5C13.1111 3.34315 14.4543 2 16.1111 2H19C20.6569 2 22 3.34315 22 5V7.88889C22 9.54574 20.6569 10.8889 19 10.8889H16.1111C14.4543 10.8889 13.1111 9.54574 13.1111 7.88889V5ZM7.88889 14.6111H5C4.17157 14.6111 3.5 15.2827 3.5 16.1111V19C3.5 19.8284 4.17157 20.5 5 20.5H7.88889C8.71732 20.5 9.38889 19.8284 9.38889 19V16.1111C9.38889 15.2827 8.71732 14.6111 7.88889 14.6111ZM5 13.1111C3.34315 13.1111 2 14.4543 2 16.1111V19C2 20.6569 3.34315 22 5 22H7.88889C9.54574 22 10.8889 20.6569 10.8889 19V16.1111C10.8889 14.4543 9.54574 13.1111 7.88889 13.1111H5ZM16.1111 14.6111H19C19.8284 14.6111 20.5 15.2827 20.5 16.1111V19C20.5 19.8284 19.8284 20.5 19 20.5H16.1111C15.2827 20.5 14.6111 19.8284 14.6111 19V16.1111C14.6111 15.2827 15.2827 14.6111 16.1111 14.6111ZM13.1111 16.1111C13.1111 14.4543 14.4543 13.1111 16.1111 13.1111H19C20.6569 13.1111 22 14.4543 22 16.1111V19C22 20.6569 20.6569 22 19 22H16.1111C14.4543 22 13.1111 20.6569 13.1111 19V16.1111Z" fill="#808080"/>
</svg>
