<svg width="16" height="16" viewBox="0 0 16 16" fill="none" xmlns="http://www.w3.org/2000/svg">
<path fill-rule="evenodd" clip-rule="evenodd" d="M2.75 5C2.75 3.75736 3.75736 2.75 5 2.75H8C8.41421 2.75 8.75 2.41421 8.75 2C8.75 1.58579 8.41421 1.25 8 1.25H5C2.92893 1.25 1.25 2.92893 1.25 5V11C1.25 13.0711 2.92893 14.75 5 14.75H11C13.0711 14.75 14.75 13.0711 14.75 11V8C14.75 7.58579 14.4142 7.25 14 7.25C13.5858 7.25 13.25 7.58579 13.25 8V11C13.25 12.2426 12.2426 13.25 11 13.25H5C3.75736 13.25 2.75 12.2426 2.75 11V5ZM13.5751 2.35767C12.8917 1.67425 11.7836 1.67425 11.1002 2.35767L5.96153 7.49635C5.77181 7.68607 5.62825 7.91686 5.54196 8.17091L5.21566 9.13145C4.88223 10.113 5.81973 11.0505 6.8013 10.7171L7.76184 10.3908C8.01588 10.3045 8.24668 10.1609 8.4364 9.97122L13.5751 4.83254C14.2585 4.14912 14.2585 3.04108 13.5751 2.35767ZM12.1609 3.41833C12.2585 3.32069 12.4168 3.32069 12.5144 3.41833C12.6121 3.51596 12.6121 3.67425 12.5144 3.77188L7.37574 8.91056C7.34864 8.93766 7.31567 8.95817 7.27937 8.9705L6.7991 9.13365L6.96225 8.65338C6.97458 8.61708 6.99508 8.58411 7.02219 8.55701L12.1609 3.41833Z" fill="#B3B3B3"/>
</svg>
