<svg width="24" height="24" viewBox="0 0 24 24" fill="none" xmlns="http://www.w3.org/2000/svg">
<path fill-rule="evenodd" clip-rule="evenodd" d="M18.5 11.0471C18.5 14.5082 16.7992 16.8645 15.0179 18.4074C14.1234 19.1822 13.2234 19.7361 12.5466 20.0953C12.3395 20.2053 12.155 20.2961 12 20.3688C11.845 20.2961 11.6605 20.2053 11.4534 20.0953C10.7766 19.7361 9.87657 19.1822 8.98208 18.4074C7.20082 16.8645 5.5 14.5082 5.5 11.0471C5.5 7.42291 8.41843 4.5 12 4.5C15.5816 4.5 18.5 7.42291 18.5 11.0471ZM20 11.0471C20 19.0941 12 22 12 22C12 22 4 19.0941 4 11.0471C4 6.60279 7.58172 3 12 3C16.4183 3 20 6.60279 20 11.0471ZM14.5 11C14.5 12.3807 13.3807 13.5 12 13.5C10.6193 13.5 9.5 12.3807 9.5 11C9.5 9.61929 10.6193 8.5 12 8.5C13.3807 8.5 14.5 9.61929 14.5 11ZM16 11C16 13.2091 14.2091 15 12 15C9.79086 15 8 13.2091 8 11C8 8.79086 9.79086 7 12 7C14.2091 7 16 8.79086 16 11Z" fill="white"/>
</svg>
