<svg width="20" height="20" viewBox="0 0 20 20" fill="none" xmlns="http://www.w3.org/2000/svg">
<path fillRule="evenodd" clipRule="evenodd" d="M10.1483 1.75C6.80735 1.75 3.92953 3.81115 2.69183 6.76786L1.30817 6.18866C2.7666 2.70463 6.17037 0.25 10.1483 0.25C15.4629 0.25 19.75 4.62702 19.75 10C19.75 15.373 15.4629 19.75 10.1483 19.75C6.17037 19.75 2.7666 17.2954 1.30817 13.8113L2.69183 13.2321C3.92953 16.1888 6.80735 18.25 10.1483 18.25C14.6111 18.25 18.25 14.5681 18.25 10C18.25 5.43185 14.6111 1.75 10.1483 1.75ZM10.823 9.25L8.34009 6.84593L9.41772 5.80251L13.2135 9.47777L13.7523 9.99948L13.2135 10.5212L9.41772 14.1965L8.34009 13.153L10.8219 10.75L0 10.75V9.25L10.823 9.25Z" fill="white"/>
</svg>
