<svg width="140" height="31" viewBox="0 0 140 31" fill="none" xmlns="http://www.w3.org/2000/svg">
<path d="M28.1857 0C23.8005 0 19.8385 1.84531 17.0014 4.81504C14.1643 1.84531 10.2014 0 5.81623 0H0V9.0522L5.81623 9.04828V9.0522C9.53728 9.0522 12.5654 12.1424 12.5654 15.9398V31H21.4346V15.9398C21.4346 12.1424 24.4627 9.0522 28.1838 9.0522V9.04828L34 9.0522V0H28.1857Z" fill="#0A5FC4"/>
<path d="M50.1504 12.2849H54.942L54.9445 23.7365H58.7788L58.7763 12.2787L63.5754 12.2849V8.46933L50.1504 8.46313V12.2849Z" fill="#1A1A1A"/>
<path d="M106.074 17.0571L99.363 8.4668H95.5249V23.7365H99.363V15.1474L106.074 23.7365H109.909V8.4668H106.074V17.0571Z" fill="#1A1A1A"/>
<path d="M117.838 8.4668H114V23.7377H117.838V8.4668Z" fill="#1A1A1A"/>
<path d="M130.63 14.2763L125.701 8.4668H122V23.7377H125.834V14.1994L130.63 19.9519L135.422 14.2019V23.7377H139.257V8.4668H135.422L130.63 14.2763Z" fill="#1A1A1A"/>
<path d="M73.1625 8.4668H73.16H69.3294H69.3269L69.3282 8.47051L63.5754 23.7377H67.4098L68.4791 20.8987L74.0115 20.8962L75.0821 23.7377H78.9164L73.1637 8.47051L73.1625 8.4668ZM72.9284 18.0261L69.5597 18.0286L71.2441 13.5588L72.9284 18.0261Z" fill="#1A1A1A"/>
<path d="M88.134 14.3234L86.0961 13.9057C85.2023 13.7248 84.8151 13.5389 84.647 13.415C84.4366 13.2589 84.3346 13.0383 84.3346 12.7384C84.3346 12.5129 84.3346 11.8263 86.2455 11.8263C87.0285 11.8015 87.8203 11.8945 88.5984 12.1101C89.3814 12.327 89.9715 12.5451 90.3512 12.757C90.5915 12.8921 90.7545 13.0061 90.8392 13.0705L92.1351 9.63043L92.0094 9.53624C91.9994 9.52881 91.7542 9.34541 91.2762 9.11491C90.7994 8.88566 90.0698 8.65392 89.105 8.42838C88.1353 8.20161 87.1393 8.10123 86.1521 8.12973C84.2138 8.12973 82.7162 8.56346 81.7016 9.41976C80.677 10.286 80.1579 11.4446 80.1579 12.8636C80.1579 14.1437 80.489 15.171 81.1414 15.9158C81.7887 16.6568 82.8232 17.1785 84.2126 17.4673L86.5617 17.9679C87.2651 18.1265 87.7493 18.305 88.0008 18.4995C88.2212 18.6693 88.3282 18.8986 88.3282 19.1997C88.3282 19.4413 88.3282 20.1737 86.2492 20.1737C85.4201 20.1997 84.5723 20.1006 83.7245 19.8775C82.8705 19.6532 82.2195 19.4277 81.7887 19.2059C81.4912 19.0535 81.2995 18.9258 81.2123 18.8639L79.9164 22.3002V22.3014L80.0409 22.3969C80.0508 22.4043 80.2998 22.5939 80.8227 22.8318C81.3406 23.0685 82.1112 23.3089 83.1133 23.5481C84.0196 23.7637 84.9371 23.8728 85.8396 23.8728C85.9442 23.8728 86.0475 23.8715 86.1521 23.8691C88.2 23.8691 89.786 23.4403 90.8678 22.5951C91.9671 21.7351 92.5248 20.5294 92.5248 19.0101C92.5248 17.7275 92.1638 16.6915 91.4517 15.9319C90.7521 15.1809 89.6354 14.6406 88.134 14.3234Z" fill="#1A1A1A"/>
</svg>
