<svg width="72" height="50" viewBox="0 0 72 50" fill="none" xmlns="http://www.w3.org/2000/svg">
<path d="M0.660156 33.5859C0.660156 29.875 1.34375 26.099 2.71094 22.2578C4.07812 18.4167 5.77083 15.0312 7.78906 12.1016C9.80729 9.17188 11.6953 6.73047 13.4531 4.77734C15.2109 2.82422 16.7734 1.29427 18.1406 0.1875L25.3672 4.38672C24.651 5.55859 23.7396 7.47917 22.6328 10.1484C21.526 12.8177 20.9727 14.8685 20.9727 16.3008C20.9727 16.6263 21.0378 16.9844 21.168 17.375C24.2279 18.0911 26.8646 19.849 29.0781 22.6484C31.3568 25.3828 32.4961 29.0286 32.4961 33.5859C32.4961 37.4922 30.9336 41.1055 27.8086 44.4258C24.6836 47.681 21.0703 49.3086 16.9688 49.3086C11.8255 49.3086 7.82161 47.681 4.95703 44.4258C2.09245 41.1055 0.660156 37.4922 0.660156 33.5859ZM39.918 33.7812C39.918 30.0703 40.6016 26.2943 41.9688 22.4531C43.3359 18.612 45.0286 15.2266 47.0469 12.2969C49.0651 9.36719 50.9531 6.92578 52.7109 4.97266C54.4688 3.01953 56.0312 1.48958 57.3984 0.382812L64.625 4.58203C63.9089 5.75391 62.9974 7.67448 61.8906 10.3438C60.7839 13.013 60.2305 15.0638 60.2305 16.4961C60.2305 16.8216 60.2956 17.1797 60.4258 17.5703C63.4857 18.2865 66.1224 20.0443 68.3359 22.8438C70.6146 25.5781 71.7539 29.224 71.7539 33.7812C71.7539 37.6875 70.1914 41.3008 67.0664 44.6211C63.9414 47.8763 60.3281 49.5039 56.2266 49.5039C51.0833 49.5039 47.0794 47.8763 44.2148 44.6211C41.3503 41.3008 39.918 37.6875 39.918 33.7812Z" fill="#0A5EC4"/>
</svg>
