<svg width="24" height="24" viewBox="0 0 24 24" fill="none" xmlns="http://www.w3.org/2000/svg">
<path d="M3 7H9V9C9 10.6569 7.65685 12 6 12V12C4.34315 12 3 10.6569 3 9V7Z" stroke="#808080" stroke-width="1.5" stroke-linejoin="round"/>
<path d="M21 7V6.25C21.4142 6.25 21.75 6.58579 21.75 7H21ZM15 7H14.25V6.25H15V7ZM21 7.75H15V6.25H21V7.75ZM15.75 7V9H14.25V7H15.75ZM20.25 9V7H21.75V9H20.25ZM18 11.25C19.2426 11.25 20.25 10.2426 20.25 9H21.75C21.75 11.0711 20.0711 12.75 18 12.75V11.25ZM15.75 9C15.75 10.2426 16.7574 11.25 18 11.25V12.75C15.9289 12.75 14.25 11.0711 14.25 9H15.75Z" fill="#808080"/>
<path d="M9 7H15V9C15 10.6569 13.6569 12 12 12V12C10.3431 12 9 10.6569 9 9V7Z" stroke="#808080" stroke-width="1.5"/>
<path d="M5.1 4.2C5.66656 3.44458 6.55573 3 7.5 3H16.5C17.4443 3 18.3334 3.44458 18.9 4.2L21 7H3L5.1 4.2Z" stroke="#808080" stroke-width="1.5" stroke-linejoin="round"/>
<path d="M4 11V18C4 19.6569 5.34315 21 7 21H17C18.6569 21 20 19.6569 20 18V11" stroke="#808080" stroke-width="1.5"/>
</svg>
