<svg width="24" height="24" viewBox="0 0 24 24" fill="none" xmlns="http://www.w3.org/2000/svg">
<path fill-rule="evenodd" clip-rule="evenodd" d="M12.1483 3.75C8.80735 3.75 5.92953 5.81115 4.69183 8.76786L3.30817 8.18866C4.7666 4.70463 8.17037 2.25 12.1483 2.25C17.4629 2.25 21.75 6.62702 21.75 12C21.75 17.373 17.4629 21.75 12.1483 21.75C8.17037 21.75 4.7666 19.2954 3.30817 15.8113L4.69183 15.2321C5.92953 18.1888 8.80735 20.25 12.1483 20.25C16.6111 20.25 20.25 16.5681 20.25 12C20.25 7.43185 16.6111 3.75 12.1483 3.75ZM12.823 11.25L10.3401 8.84593L11.4177 7.80251L15.2135 11.4778L15.7523 11.9995L15.2135 12.5212L11.4177 16.1965L10.3401 15.153L12.8219 12.75L2 12.75V11.25L12.823 11.25Z" fill="white"/>
</svg>
