<svg width="32" height="28" viewBox="0 0 32 28" fill="none" xmlns="http://www.w3.org/2000/svg">
<path opacity="0.7" fill-rule="evenodd" clip-rule="evenodd" d="M5 4.91579C2.23858 4.91579 0 7.15436 0 9.91579V22.7693C0 25.5308 2.23858 27.7693 5 27.7693H27C29.7614 27.7693 32 25.5308 32 22.7693V9.91579C32 7.15437 29.7614 4.91579 27 4.91579H25.9304C24.6882 4.91579 23.4904 4.45336 22.5704 3.61857L20.9851 2.18003C20.0652 1.34525 18.8674 0.882812 17.6252 0.882812H14.3748C13.1326 0.882812 11.9348 1.34525 11.0149 2.18004L9.42957 3.61857C8.50961 4.45336 7.31185 4.91579 6.0696 4.91579H5ZM10 15.8195C10 12.526 12.6824 9.84889 16.0004 9.84889C19.3184 9.84889 22.0009 12.526 22.0009 15.8195C22.0009 19.1129 19.3184 21.7901 16.0004 21.7901C12.6824 21.7901 10 19.1129 10 15.8195ZM16.0004 7.84889C11.5859 7.84889 8 11.4134 8 15.8195C8 20.2255 11.5859 23.7901 16.0004 23.7901C20.4149 23.7901 24.0009 20.2255 24.0009 15.8195C24.0009 11.4134 20.4149 7.84889 16.0004 7.84889Z" fill="#E6E6E6"/>
</svg>
