<svg width="24px" height="24px" viewBox="0 0 24 24" fill="none" >
<path d="M5.89315 18.3529C7.04094 16.1507 9.34499 14.6471 12.0002 14.6471C14.6555 14.6471 16.9595 16.1507 18.1073 18.3529M21 12C21 16.9706 16.9706 21 12 21C7.02944 21 3 16.9706 3 12C3 7.02944 7.02944 3 12 3C16.9706 3 21 7.02944 21 12ZM14.6471 9.88235C14.6471 11.3443 13.4619 12.5294 12 12.5294C10.5381 12.5294 9.35294 11.3443 9.35294 9.88235C9.35294 8.42042 10.5381 7.23529 12 7.23529C13.4619 7.23529 14.6471 8.42042 14.6471 9.88235Z" stroke="white" stroke-width="1.5"/>
</svg>
