<svg width="24" height="24" viewBox="0 0 24 24" fill="none" xmlns="http://www.w3.org/2000/svg">
<path fill-rule="evenodd" clip-rule="evenodd" d="M3.44727 7C3.44727 7.13807 3.55919 7.25 3.69727 7.25H20.3019C20.44 7.25 20.5519 7.13807 20.5519 7V6.75V5C20.5519 4.30964 19.9923 3.75 19.3019 3.75H4.69726C4.00691 3.75 3.44727 4.30964 3.44727 5V6.75V7ZM21.1217 8.54651C21.6751 8.25257 22.0519 7.67029 22.0519 7V6.75V5C22.0519 3.48122 20.8207 2.25 19.3019 2.25H4.69726C3.17848 2.25 1.94727 3.48122 1.94727 5V6.75V7C1.94727 7.67029 2.32411 8.25257 2.8775 8.54651V11.25V18C2.8775 20.0711 4.55643 21.75 6.6275 21.75H17.3717C19.4428 21.75 21.1217 20.0711 21.1217 18V11.25V8.54651ZM19.6217 8.75H4.3775V11.25V18C4.3775 19.2426 5.38486 20.25 6.6275 20.25H17.3717C18.6143 20.25 19.6217 19.2426 19.6217 18V11.25V8.75ZM9.11829 11.8535C9.11829 11.4393 9.45407 11.1035 9.86829 11.1035H14.1309C14.5451 11.1035 14.8809 11.4393 14.8809 11.8535C14.8809 12.2677 14.5451 12.6035 14.1309 12.6035H9.86829C9.45407 12.6035 9.11829 12.2677 9.11829 11.8535Z" fill="#808080"/>
</svg>
