<svg width="24" height="24" viewBox="0 0 24 24" fill="none" xmlns="http://www.w3.org/2000/svg">
<path fill-rule="evenodd" clip-rule="evenodd" d="M7.875 5.81989H3V7.31989H4.5V18.1983C4.5 20.2693 6.17893 21.9483 8.25 21.9483H15.75C17.8211 21.9483 19.5 20.2693 19.5 18.1983V7.31989H21V5.81989H16.125V5.05078C16.125 3.532 14.8938 2.30078 13.375 2.30078H10.625C9.10622 2.30078 7.875 3.532 7.875 5.05078V5.81989ZM9.375 5.81989H14.625V5.05078C14.625 4.36042 14.0654 3.80078 13.375 3.80078H10.625C9.93464 3.80078 9.375 4.36043 9.375 5.05078V5.81989ZM18 7.31989H6V18.1983C6 19.4409 7.00736 20.4483 8.25 20.4483H15.75C16.9926 20.4483 18 19.4409 18 18.1983V7.31989ZM9 17.9952V9.45466H10.5V17.9952H9ZM13.5 17.9952V9.45466H15V17.9952H13.5Z" fill="#B3B3B3"/>
</svg>
