<svg width="25" height="24" viewBox="0 0 25 24" fill="none" xmlns="http://www.w3.org/2000/svg">
<path fill-rule="evenodd" clip-rule="evenodd" d="M2.5 2.25H5.30989C5.64481 2.25 5.93914 2.47206 6.03108 2.79412L6.72003 5.20751H20.1063C21.3039 5.20751 22.1477 6.3835 21.7641 7.51804L19.721 13.5605C19.4806 14.2715 18.8137 14.75 18.0632 14.75H9.20455C8.42306 14.75 7.73629 14.2319 7.52177 13.4804L4.74403 3.75H2.5V2.25ZM7.14824 6.70751L8.96415 13.0686C8.9948 13.176 9.09291 13.25 9.20455 13.25H18.0632C18.1704 13.25 18.2657 13.1816 18.3 13.0801L20.3431 7.03759C20.3979 6.87551 20.2774 6.70751 20.1063 6.70751H7.14824ZM9.08546 19.5C9.6744 19.5 10.1183 19.0339 10.1183 18.5C10.1183 17.9661 9.6744 17.5 9.08546 17.5C8.49651 17.5 8.05261 17.9661 8.05261 18.5C8.05261 19.0339 8.49651 19.5 9.08546 19.5ZM9.08546 21C10.4843 21 11.6183 19.8807 11.6183 18.5C11.6183 17.1193 10.4843 16 9.08546 16C7.68661 16 6.55261 17.1193 6.55261 18.5C6.55261 19.8807 7.68661 21 9.08546 21ZM18.9318 18.5C18.9318 19.0339 18.4879 19.5 17.8989 19.5C17.31 19.5 16.8661 19.0339 16.8661 18.5C16.8661 17.9661 17.31 17.5 17.8989 17.5C18.4879 17.5 18.9318 17.9661 18.9318 18.5ZM20.4318 18.5C20.4318 19.8807 19.2978 21 17.8989 21C16.5001 21 15.3661 19.8807 15.3661 18.5C15.3661 17.1193 16.5001 16 17.8989 16C19.2978 16 20.4318 17.1193 20.4318 18.5Z" fill="#1A1A1A"/>
</svg>
