<svg width="121" height="120" viewBox="0 0 121 120" fill="none" xmlns="http://www.w3.org/2000/svg">
<circle cx="60.5" cy="60" r="60" fill="#E6F1FF"/>
<path d="M22.2913 57.5439C20.9578 56.0071 22.5844 53.7143 24.4755 54.4653L51.844 65.3329C52.7501 65.6927 53.7756 65.5804 54.5823 65.033L116.139 23.2647C118.077 21.9499 120.255 24.5529 118.62 26.2288L54.7268 91.7144C53.9331 92.5278 52.6138 92.4893 51.869 91.6309L22.2913 57.5439Z" fill="#0A5EC4" stroke="#0A5EC4"/>
<path d="M15.2992 7.2002L16.9114 13.188L22.8992 14.8002L16.9114 16.4124L15.2992 22.4002L13.687 16.4124L7.69922 14.8002L13.687 13.188L15.2992 7.2002Z" fill="#6BA1E3"/>
<path d="M86.0992 6.40039L87.1853 11.7143L92.4992 12.8004L87.1853 13.8865L86.0992 19.2004L85.0131 13.8865L79.6992 12.8004L85.0131 11.7143L86.0992 6.40039Z" fill="#6BA1E3"/>
<path d="M28.9004 87.2002L29.7489 92.3517L34.9004 93.2002L29.7489 94.0487L28.9004 99.2002L28.0519 94.0487L22.9004 93.2002L28.0519 92.3517L28.9004 87.2002Z" fill="#6BA1E3"/>
<path d="M113.7 79.2002L115.143 84.8728L120.5 86.4002L115.143 87.9275L113.7 93.6002L112.258 87.9275L106.9 86.4002L112.258 84.8728L113.7 79.2002Z" fill="#6BA1E3"/>
<path d="M54.5 28.7998L55.4334 33.8664L60.5 34.7998L55.4334 35.7332L54.5 40.7998L53.5666 35.7332L48.5 34.7998L53.5666 33.8664L54.5 28.7998Z" fill="#6BA1E3"/>
<path d="M36.15 24.5513C28.0953 30.312 24.2615 38.5952 21.7847 35.1321C19.3078 31.6689 23.8296 24.1914 31.8843 18.4307C39.9391 12.67 48.4766 10.8075 50.9535 14.2707C53.4304 17.7339 44.2048 18.7906 36.15 24.5513Z" fill="white"/>
</svg>
