<svg width="18" height="18" viewBox="0 0 18 18" fill="none" xmlns="http://www.w3.org/2000/svg">
<path fill-rule="evenodd" clip-rule="evenodd" d="M3 1.5H15C15.8284 1.5 16.5 2.17157 16.5 3V15C16.5 15.8284 15.8284 16.5 15 16.5H3C2.17157 16.5 1.5 15.8284 1.5 15V3C1.5 2.17157 2.17157 1.5 3 1.5ZM0 3C0 1.34315 1.34315 0 3 0H15C16.6569 0 18 1.34315 18 3V15C18 16.6569 16.6569 18 15 18H3C1.34315 18 0 16.6569 0 15V3ZM4.75 4.5C4.33579 4.5 4 4.83579 4 5.25C4 5.66421 4.33579 6 4.75 6H13.25C13.6642 6 14 5.66421 14 5.25C14 4.83579 13.6642 4.5 13.25 4.5H4.75ZM4 9.25C4 8.83579 4.33579 8.5 4.75 8.5H13.25C13.6642 8.5 14 8.83579 14 9.25C14 9.66421 13.6642 10 13.25 10H4.75C4.33579 10 4 9.66421 4 9.25ZM4.75 12.5C4.33579 12.5 4 12.8358 4 13.25C4 13.6642 4.33579 14 4.75 14H13.25C13.6642 14 14 13.6642 14 13.25C14 12.8358 13.6642 12.5 13.25 12.5H4.75Z" fill="#999999"/>
</svg>
