<svg width="46" height="46" viewBox="0 0 46 46" fill="none" xmlns="http://www.w3.org/2000/svg">
<g opacity="0.5">
<path d="M11.2969 22.5312H34.7011" stroke="#1A1A1A" strokeWidth="1.5"/>
<mask id="path-2-inside-1_457_2935" fill="white">
<rect x="31.5" y="11" width="8" height="5" rx="1" transform="rotate(90 31.5 11)"/>
</mask>
<rect x="31.5" y="11" width="8" height="5" rx="1" transform="rotate(90 31.5 11)" stroke="#1A1A1A" strokeWidth="3" mask="url(#path-2-inside-1_457_2935)"/>
<mask id="path-3-inside-2_457_2935" fill="white">
<rect x="24.5" y="11" width="8" height="5" rx="1" transform="rotate(90 24.5 11)"/>
</mask>
<rect x="24.5" y="11" width="8" height="5" rx="1" transform="rotate(90 24.5 11)" stroke="#1A1A1A" strokeWidth="3" mask="url(#path-3-inside-2_457_2935)"/>
<path d="M12.234 1H4C2.34315 1 1 2.34315 1 4V12.234" stroke="#1A1A1A" strokeWidth="1.5" stroke-linecap="round" stroke-linejoin="bevel"/>
<path d="M33.766 45L42 45C43.6569 45 45 43.6569 45 42L45 33.766" stroke="#1A1A1A" strokeWidth="1.5" stroke-linecap="round" stroke-linejoin="bevel"/>
<path d="M1 33.766L1 42C1 43.6569 2.34315 45 4 45L12.234 45" stroke="#1A1A1A" strokeWidth="1.5" stroke-linecap="round" stroke-linejoin="bevel"/>
<path d="M45 12.234L45 4C45 2.34315 43.6569 1 42 1L33.766 1" stroke="#1A1A1A" strokeWidth="1.5" stroke-linecap="round" stroke-linejoin="bevel"/>
<path d="M34.7011 22.5315V9.55273C34.7011 8.44816 33.8057 7.55273 32.7011 7.55273H13.2969C12.1923 7.55273 11.2969 8.44816 11.2969 9.55273V22.5315" stroke="#1A1A1A" strokeWidth="1.5"/>
<path d="M11.2969 22.5312V36.4461C11.2969 37.5507 12.1923 38.4461 13.2969 38.4461H32.7011C33.8057 38.4461 34.7011 37.5507 34.7011 36.4461V22.5312" stroke="#1A1A1A" strokeWidth="1.5"/>
<path d="M15.9805 27.2129H30.023M15.9805 30.4895H30.023M15.9805 33.7661H30.023" stroke="#1A1A1A" strokeWidth="1.5" stroke-linecap="round"/>
</g>
</svg>
