<svg width="46" height="46" viewBox="0 0 46 46" fill="none" xmlns="http://www.w3.org/2000/svg">
<path opacity="0.5" d="M12.234 1H4C2.34315 1 1 2.34315 1 4V12.234" stroke="#1A1A1A" strokeWidth="1.5" stroke-linecap="round" stroke-linejoin="bevel"/>
<path opacity="0.5" d="M33.766 45L42 45C43.6569 45 45 43.6569 45 42L45 33.766" stroke="#1A1A1A" strokeWidth="1.5" stroke-linecap="round" stroke-linejoin="bevel"/>
<path opacity="0.5" d="M1 33.766L1 42C1 43.6569 2.34315 45 4 45L12.234 45" stroke="#1A1A1A" strokeWidth="1.5" stroke-linecap="round" stroke-linejoin="bevel"/>
<path opacity="0.5" d="M45 12.234L45 4C45 2.34315 43.6569 1 42 1L33.766 1" stroke="#1A1A1A" strokeWidth="1.5" stroke-linecap="round" stroke-linejoin="bevel"/>
<path opacity="0.5" d="M17.5 18.8525C18.2998 14.8525 23.5006 17.3524 26.5006 14.3524C27.5006 14.8524 28.6894 15.4362 29 18.8523M17.5 18.8525C17.2195 16.9594 16.2283 13.8584 17.5003 11.8524C19.2521 9.08996 23 7.85246 26.5006 10.3523C30.5008 10.3523 31 16.3523 29 18.8523M17.5 18.8525C16.5 18.8523 16.5 19.3525 16.5 20.3525C16.5 21.3525 17.5 21.6858 18 21.3524C18 23.3524 19.1 27.3524 23.5 27.3524C27.9 27.3524 29 23.3524 29 21.3524C29.3333 21.5191 30.5 21.8525 30.5 20.3525C30.5 18.8525 30 18.8523 29 18.8523M20.5 26.5225V28.3524M26.5 26.8524V28.8524C26.4995 30.0524 24.5003 31.8524 23.5 31.8524C22.4997 31.8524 20.5 30.3164 20.5 28.8524V28.3524M26.5 28.3524C30 28.3524 35 30.4525 35 32.8525C35 35.2525 35 36.1858 35 36.3525L12 36.3524V32.8524C12 30.3524 17.2998 28.3524 20.5 28.3524" stroke="#1A1A1A" strokeWidth="1.5" stroke-linejoin="round"/>
</svg>
