<svg width="20" height="20" viewBox="0 0 20 20" fill="none" xmlns="http://www.w3.org/2000/svg">
<path fill-rule="evenodd" clip-rule="evenodd" d="M8.62598 0.25C7.65948 0.25 6.87598 1.0335 6.87598 2V3.11509C6.87598 3.20469 6.81565 3.3333 6.65768 3.41326C6.41529 3.53595 6.18063 3.67154 5.95462 3.8191C5.80714 3.91539 5.66617 3.90351 5.58863 3.85885L4.61321 3.29704C3.77693 2.81537 2.70856 3.10164 2.22515 3.93692L0.852847 6.30813C0.368017 7.14587 0.655311 8.21807 1.49406 8.70116L2.46401 9.25982C2.54171 9.30457 2.62294 9.42097 2.61342 9.59737C2.60622 9.73074 2.60258 9.86498 2.60258 10C2.60258 10.135 2.60622 10.2693 2.61342 10.4026C2.62294 10.579 2.54171 10.6954 2.46401 10.7402L1.49405 11.2988C0.655311 11.7819 0.368018 12.8541 0.852847 13.6919L2.22515 16.0631C2.70856 16.8984 3.77693 17.1846 4.61321 16.703L5.58863 16.1411C5.66617 16.0965 5.80714 16.0846 5.95462 16.1809C6.18063 16.3285 6.41529 16.4641 6.65768 16.5867C6.81565 16.6667 6.87598 16.7953 6.87598 16.8849V18C6.87598 18.9665 7.65948 19.75 8.62598 19.75H11.3742C12.3407 19.75 13.1242 18.9665 13.1242 18V16.8849C13.1242 16.7953 13.1845 16.6667 13.3425 16.5867C13.5849 16.4641 13.8195 16.3285 14.0455 16.1809C14.193 16.0846 14.334 16.0965 14.4115 16.1412L15.3869 16.703C16.2231 17.1846 17.2915 16.8984 17.7749 16.0631L19.1472 13.6919C19.6321 12.8541 19.3448 11.7819 18.506 11.2988L17.5362 10.7402C17.4585 10.6955 17.3772 10.5791 17.3867 10.4027C17.3939 10.2693 17.3976 10.135 17.3976 10C17.3976 9.86497 17.3939 9.73071 17.3867 9.59732C17.3772 9.42092 17.4585 9.30452 17.5362 9.25976L18.506 8.70116C19.3448 8.21807 19.6321 7.14587 19.1472 6.30813L17.7749 3.93692C17.2915 3.10164 16.2231 2.81537 15.3869 3.29704L14.4115 3.85882C14.334 3.90348 14.193 3.91536 14.0455 3.81907C13.8195 3.67152 13.5849 3.53594 13.3425 3.41326C13.1845 3.3333 13.1242 3.20469 13.1242 3.11509V2C13.1242 1.0335 12.3407 0.25 11.3742 0.25H8.62598ZM8.37598 2C8.37598 1.86193 8.48791 1.75 8.62598 1.75H11.3742C11.5123 1.75 11.6242 1.86193 11.6242 2V3.11509C11.6242 3.855 12.083 4.45694 12.6651 4.75159C12.8582 4.84933 13.0452 4.9574 13.2255 5.07508C13.7712 5.43135 14.5203 5.52714 15.1601 5.15864L16.1355 4.59686C16.255 4.52805 16.4076 4.56894 16.4767 4.68827L17.849 7.05948C17.9182 7.17916 17.8772 7.33233 17.7574 7.40134L16.7875 7.95995C16.1467 8.32903 15.8538 9.02659 15.8889 9.67815C15.8947 9.78463 15.8976 9.89194 15.8976 10C15.8976 10.1081 15.8947 10.2154 15.8889 10.3219C15.8538 10.9734 16.1467 11.671 16.7875 12.0401L17.7574 12.5987C17.8772 12.6677 17.9182 12.8208 17.849 12.9405L16.4767 15.3117C16.4076 15.4311 16.255 15.472 16.1355 15.4031L15.1601 14.8414C14.5203 14.4729 13.7712 14.5687 13.2255 14.9249C13.0452 15.0426 12.8582 15.1507 12.6651 15.2484C12.083 15.5431 11.6242 16.145 11.6242 16.8849V18C11.6242 18.1381 11.5123 18.25 11.3742 18.25H8.62598C8.48791 18.25 8.37598 18.1381 8.37598 18V16.8849C8.37598 16.145 7.91721 15.5431 7.33509 15.2484C7.14196 15.1507 6.95491 15.0426 6.77465 14.9249C6.22897 14.5686 5.47978 14.4728 4.83998 14.8413L3.86456 15.4031C3.74509 15.472 3.59247 15.4311 3.52341 15.3117L2.15111 12.9405C2.08184 12.8208 2.12289 12.6677 2.24271 12.5987L3.21266 12.04C3.85346 11.6709 4.1464 10.9734 4.11124 10.3218C4.10549 10.2153 4.10258 10.108 4.10258 10C4.10258 9.89195 4.10549 9.78466 4.11124 9.67819C4.1464 9.02664 3.85346 8.32908 3.21266 7.96001L2.24271 7.40134C2.12289 7.33233 2.08184 7.17916 2.15111 7.05948L3.52341 4.68827C3.59247 4.56895 3.7451 4.52805 3.86456 4.59686L4.83998 5.15867C5.47978 5.52717 6.22897 5.43138 6.77465 5.07511C6.95491 4.95742 7.14196 4.84934 7.33509 4.75159C7.91721 4.45694 8.37598 3.855 8.37598 3.11509V2ZM11.5 10C11.5 10.8284 10.8285 11.5 10 11.5C9.17161 11.5 8.50003 10.8284 8.50003 10C8.50003 9.17157 9.17161 8.5 10 8.5C10.8285 8.5 11.5 9.17157 11.5 10ZM13 10C13 11.6569 11.6569 13 10 13C8.34318 13 7.00003 11.6569 7.00003 10C7.00003 8.34315 8.34318 7 10 7C11.6569 7 13 8.34315 13 10Z" fill="#999999"/>
</svg>
